<svg id="Camada_1" data-name="Camada 1" xmlns="http://www.w3.org/2000/svg" viewBox="0 0 6900 1080"><defs><style>.cls-1{fill:#b5c3e5}.cls-2{fill:#9eb3dd}</style></defs><path class="cls-1" d="M6665.36 1080a116.07 116.07 0 0 0 2.43-23.6c0-75.58-73.16-136.85-163.41-136.85a191.16 191.16 0 0 0-57.75 8.81c-21.32-59.05-60.65-98.68-105.65-98.68a78 78 0 0 0-27.08 4.91c-14.13-54-44.13-95.34-88.06-113.3-41.18-16.84-88-10.43-133.2 14C6076.44 608.91 5964 511 5827.69 511a276.34 276.34 0 0 0-102.41 19.51 392.91 392.91 0 0 0 11.1-93c0-216.59-175.58-392.17-392.17-392.17-190.69 0-349.59 136.11-384.86 316.48a256.94 256.94 0 0 0-31.82-2 252.8 252.8 0 0 0-199.16 96.8c-77.5-211-253.09-358.19-457.28-358.19-276 0-499.64 268.85-499.64 600.51q0 27.85 2.08 55.1c-46.62-25.6-95.09-32.44-137.61-15-62.25 25.51-97.1 97-99.19 185.06a202.93 202.93 0 0 0-42.89-4.55c-71.44 0-132.42 36.64-156.41 88.19a305.46 305.46 0 0 0-72.53-8.53c-86 0-158.75 34-183.21 80.79Z"/><path class="cls-2" d="M6044.77 1080a73.63 73.63 0 0 0 1.54-15c0-48-46.46-86.91-103.77-86.91a121.5 121.5 0 0 0-36.68 5.59c-13.54-37.5-38.51-62.67-67.09-62.67a49.48 49.48 0 0 0-17.2 3.12c-9-34.28-28-60.55-55.92-71.95-26.15-10.69-55.91-6.62-84.59 8.9-10.29-80.27-81.7-142.42-168.26-142.42a175.44 175.44 0 0 0-65 12.39 249.6 249.6 0 0 0 7.05-59.09c0-137.54-111.5-249-249.05-249-121.1 0-222 86.44-244.41 201a162.3 162.3 0 0 0-20.2-1.26 160.57 160.57 0 0 0-126.49 61.47c-49.21-134-160.72-227.47-290.4-227.47C4349 456.66 4207 627.4 4207 838q0 17.68 1.32 35c-29.61-16.26-60.39-20.6-87.39-9.54-39.54 16.2-61.67 61.61-63 117.52a128.91 128.91 0 0 0-27.24-2.88c-45.37 0-84.09 23.26-99.33 56a193.8 193.8 0 0 0-46.06-5.41c-54.6 0-100.81 21.57-116.35 51.3Z"/><path class="cls-1" d="M3620.13 445.2c-5-23.13-38.36-41-78.83-41-17 0-32.79 3.17-45.72 8.57-4.49-50.83-45-90.62-94.44-90.62-41.42 0-76.62 28-89.56 67a75.08 75.08 0 0 0-17.28-2.05 71.21 71.21 0 0 0-43.12 14.09c-12.84-8.76-29.77-14.09-48.33-14.09-27.77 0-51.9 11.93-64.12 29.44A119.72 119.72 0 0 0 3102 411c-37.12 0-67.33 15.16-69.06 34.19ZM2275.21 409.3c-3.86-12.67-29-22.45-59.37-22.45-14.21 0-27.25 2.14-37.52 5.71-8.07-8.91-25.84-15.1-46.48-15.1-20.41 0-38 6.05-46.21 14.8a65.61 65.61 0 0 0-12.77-1.25c-10.13 0-19.26 2.21-25.81 5.76-7.75-6-19.75-9.92-33.26-9.92a64 64 0 0 0-20.79 3.35c-4.27-21.57-25.2-37.95-50.39-37.95a54 54 0 0 0-36.12 13.43 49.24 49.24 0 0 0-85.7 12.06 53.68 53.68 0 0 0-29.62-8.51c-19.08 0-35.36 9.07-42 21.87-19.06.86-34.07 8.62-34.86 18.2ZM2329.23 238.24H3110c-13.18-8.84-47.39-15.15-87.54-15.15-9.53 0-18.72.36-27.39 1-19.54-13.13-57.27-22-100.62-22a296.18 296.18 0 0 0-39.18 2.54c-12.93-12.63-36.71-21.11-63.92-21.11-3.07 0-6.1.13-9.08.34-15.67-17.35-41.42-28.67-70.56-28.67a103.86 103.86 0 0 0-46.43 10.63v-.86c0-57.75-38.5-104.56-86-104.56-43.7 0-79.77 39.65-85.25 91-10.84-22.32-30.39-37.23-52.7-37.23-34.1 0-61.73 34.78-61.73 77.69v.25c-27.18 2.35-48.6 21.89-50.37 46.13ZM6753.13 322.13c-10.45-15.7-36.28-28.24-69.31-33.8.32-3.92.53-7.86.53-11.86a140.87 140.87 0 0 0-274.82-43.6 113.34 113.34 0 0 0-80.74-33.15 115.81 115.81 0 0 0-41.41 7.61c-21.5-42.81-62.32-71.73-109.17-71.73-63.4 0-115.77 52.93-124.13 121.61-54.29 5.67-96.38 32.13-101.66 64.92ZM636.84 431.51c-7.9-20.73-45.33-36.44-90.36-36.44-4 0-8 .14-11.85.39-13.94-24.57-44.53-41.64-80.06-41.64a108.34 108.34 0 0 0-13 .78c-7.38-53.87-48.76-95.12-98.71-95.12-50.15 0-91.66 41.57-98.8 95.75-31.29 4.66-56.33 20.59-65.4 41.19-44.66 4.2-79.23 17.92-87.66 35.09ZM1507.27 893.75a143.26 143.26 0 0 0-117.66-215.83c-27.14-77.37-102.68-133.06-191.69-133.06-105.63 0-192.33 78.41-201.61 178.45A127.39 127.39 0 0 0 941.45 711c-51.55 0-95.63 30.22-113.73 73a152 152 0 0 0-36.89-4.48c-34.53 0-65.38 11.2-85.75 28.77-17.88-12.74-41.25-20.46-66.84-20.46-51.16 0-93.49 30.82-100.67 71-4.43-.23-9-.36-13.55-.36-52.58 0-95.84 15.47-101.19 35.31Z"/><path class="cls-2" d="M1415.06 893.75a69.43 69.43 0 0 0-57-104.6c-13.16-37.5-49.76-64.48-92.9-64.48-51.19 0-93.21 38-97.71 86.48a61.73 61.73 0 0 0-26.59-6c-25 0-46.34 14.65-55.11 35.38a73.78 73.78 0 0 0-17.88-2.17c-16.73 0-31.68 5.43-41.56 14a55.92 55.92 0 0 0-32.39-9.92c-24.79 0-45.31 14.94-48.79 34.39q-3.23-.16-6.56-.17c-25.49 0-46.45 7.49-49 17.11ZM503 431.51c-4.75-12.47-27.28-21.93-54.37-21.93-2.42 0-4.8.09-7.14.23-8.38-14.78-26.8-25.05-48.18-25.05a66.57 66.57 0 0 0-7.8.46C381.09 352.8 356.18 328 326.12 328s-55.12 25-59.46 57.6c-18.83 2.81-33.9 12.39-39.35 24.79-26.88 2.53-47.71 10.79-52.78 21.12ZM2051.42 409.3c-1.93-6.34-14.48-11.23-29.69-11.23a58.27 58.27 0 0 0-18.76 2.86c-4-4.46-12.92-7.55-23.24-7.55s-19 3-23.1 7.4a32.5 32.5 0 0 0-6.39-.63 27.74 27.74 0 0 0-12.9 2.88c-3.88-3-9.88-5-16.63-5a32 32 0 0 0-10.39 1.68c-2.14-10.79-12.6-19-25.2-19a27 27 0 0 0-18.06 6.72 24.62 24.62 0 0 0-42.85 6 26.84 26.84 0 0 0-14.81-4.26c-9.54 0-17.68 4.54-21 10.94-9.54.43-17 4.31-17.43 9.1ZM2418.81 238.24h407.45c-6.88-4.62-24.73-7.91-45.68-7.91-5 0-9.78.19-14.3.53-10.19-6.85-29.89-11.49-52.51-11.49a153.87 153.87 0 0 0-20.45 1.33c-6.75-6.6-19.16-11-33.35-11-1.61 0-3.19.06-4.74.17-8.18-9-21.62-15-36.83-15a54.16 54.16 0 0 0-24.23 5.55v-.45c0-30.14-20.09-54.57-44.88-54.57-22.81 0-41.63 20.69-44.49 47.48-5.66-11.65-15.86-19.43-27.5-19.43-17.8 0-32.22 18.15-32.22 40.54v.13c-14.17 1.27-25.36 11.46-26.27 24.12ZM3514.46 445.2c-2.49-11.57-19.18-20.51-39.41-20.51a60.1 60.1 0 0 0-22.86 4.28c-2.25-25.41-22.53-45.31-47.22-45.31-20.72 0-38.32 14-44.78 33.51a37.57 37.57 0 0 0-8.64-1 35.56 35.56 0 0 0-21.56 7.05 43.07 43.07 0 0 0-24.17-7.05c-13.88 0-26 6-32.06 14.72a60 60 0 0 0-18.36-2.75c-18.56 0-33.67 7.58-34.53 17.09ZM6677.47 322.13c-5.8-6.76-20.14-12.16-38.47-14.56a47.83 47.83 0 0 0 .3-5.1c0-33.5-35-60.66-78.18-60.66-34.72 0-64.14 17.58-74.34 41.88-11.21-8.78-27.13-14.27-44.81-14.27a80.74 80.74 0 0 0-23 3.28c-11.94-18.43-34.59-30.89-60.59-30.89-35.18 0-64.25 22.79-68.88 52.37-30.14 2.44-53.49 13.83-56.42 27.95Z"/></svg>